# xmcd
#
# Track frame offsets:
#   150
#   13440
#   29721
#   43865
#   65462
#   92973
#   111065
#   125752
#   139886
#   153577
#   168528
#   181818
#   196842
#   211905
#   232013
#   248388
#
# Disc length: 3620 seconds
#
# Revision: 0
# Processed by: cddbd v1.5.1PL0 Copyright (c) Steve Scherf et al.
# Submitted via: uFREEDB 1.6.0
#
DISCID=e90e2210
DTITLE=Eric Clapton - From The Cradle
DYEAR=1900
DGENRE=Blues
TTITLE0=Blues Before Sunrise
TTITLE1=Blues Leave Me Alone
TTITLE2=Driftin' Blues
TTITLE3=Five Long Years
TTITLE4=Groaning The Blues
TTITLE5=Goin' Away Baby
TTITLE6=Hoochie Coochie Man
TTITLE7=How Long Blues
TTITLE8=I'm Torn Down
TTITLE9=It Hurts Me Too
TTITLE10=Motherless Child
TTITLE11=Reconsider Baby
TTITLE12=Sinner's Prayer
TTITLE13=Smoe Day After A While You'll Be Sorry
TTITLE14=Standin' Around Crying
TTITLE15=Third Degree
EXTD=
EXTT0=
EXTT1=
EXTT2=
EXTT3=
EXTT4=
EXTT5=
EXTT6=
EXTT7=
EXTT8=
EXTT9=
EXTT10=
EXTT11=
EXTT12=
EXTT13=
EXTT14=
EXTT15=
PLAYORDER=
